<svg xmlns="http://www.w3.org/2000/svg" width="254" height="40" viewBox="0 0 254 40">
    <g fill="none" fill-rule="nonzero">
        <path fill="#FFF" d="M68.782 5.178c1.465 0 3.069.585 4.254 1.572.157.117.175.318.035.451l-1.377 1.405a.381.381 0 0 1-.47.016c-.663-.584-1.43-.802-2.285-.802-1.9 0-3.435 1.538-3.435 3.377 0 1.823 1.552 3.328 3.452 3.328.506 0 1.03-.067 1.552-.268v-.97H69.41c-.192 0-.332-.133-.332-.3V11.33c0-.183.14-.318.332-.318h3.504a.32.32 0 0 1 .314.318l.017 4.498c0 .083-.07.217-.139.267 0 0-1.796 1.087-4.324 1.087-3.47 0-6.259-2.641-6.259-5.986 0-3.343 2.79-6.019 6.26-6.019zm10.69.468c0-.167.139-.317.331-.317h2.074c.175 0 .332.15.332.317v8.93h4.15c.191 0 .33.15.33.317v1.822c0 .168-.139.318-.33.318h-6.556a.324.324 0 0 1-.332-.318V5.646zm18.046-.485c3.487 0 6.277 2.692 6.277 6.036 0 3.345-2.79 6.003-6.277 6.003s-6.259-2.658-6.259-6.003c0-3.344 2.772-6.036 6.259-6.036zm0 9.364c1.918 0 3.487-1.505 3.487-3.328 0-1.839-1.57-3.36-3.487-3.36-1.9 0-3.47 1.521-3.47 3.36 0 1.823 1.57 3.328 3.47 3.328zm12.224-8.879c0-.167.14-.317.33-.317h4.063c2.058 0 3.749 1.354 3.749 3.11 0 1.287-1.203 2.224-2.023 2.641.924.368 2.336 1.188 2.336 2.726 0 1.872-1.725 3.227-3.8 3.227h-4.324a.324.324 0 0 1-.331-.318V5.646zm4.306 8.996c.68 0 1.255-.535 1.255-1.22 0-.67-.75-1.171-1.43-1.171h-1.411v2.39h1.586zm-.226-4.565c.662 0 1.22-.535 1.22-1.204 0-.668-.558-1.137-1.22-1.137h-1.36v2.341h1.36zm8.858 6.521l5.457-11.253a.356.356 0 0 1 .296-.184h.175c.122 0 .244.084.296.184l5.458 11.253c.104.218-.036.435-.297.435h-1.935c-.314 0-.454-.1-.61-.418l-.628-1.321h-4.742l-.629 1.338a.648.648 0 0 1-.627.401h-1.918c-.261 0-.4-.217-.296-.435zm7.165-3.578l-1.324-2.759h-.018l-1.308 2.759h2.65zm9.783-7.374c0-.167.14-.317.332-.317h2.074c.175 0 .331.15.331.317v8.93h4.15c.192 0 .331.15.331.317v1.822c0 .168-.14.318-.33.318h-6.556a.324.324 0 0 1-.332-.318V5.646zm19.739 9.799l.819-1.388c.14-.218.471-.184.593-.1.07.033 1.325.919 2.475.919.698 0 1.204-.418 1.204-1.003 0-.702-.61-1.237-1.796-1.689-1.5-.568-3.383-1.689-3.383-3.695 0-1.655 1.343-3.328 4.028-3.328 1.813 0 3.208.887 3.73 1.254.21.118.175.419.106.536l-.89 1.287c-.121.184-.436.335-.592.218-.158-.084-1.43-1.004-2.493-1.004-.628 0-1.099.401-1.099.853 0 .619.523 1.087 1.9 1.622 1.36.518 3.522 1.538 3.522 3.812 0 1.722-1.551 3.461-4.115 3.461-2.266 0-3.521-.903-3.922-1.287-.175-.167-.227-.235-.087-.468zM178.86 5.16c1.744 0 3.034.52 4.22 1.556.156.133.156.334.017.468l-1.36 1.354a.314.314 0 0 1-.436 0 3.65 3.65 0 0 0-2.354-.853c-1.97 0-3.417 1.572-3.417 3.445 0 1.856 1.465 3.394 3.435 3.394.82 0 1.709-.284 2.336-.803.122-.1.349-.1.454.017l1.36 1.388c.121.117.104.334-.018.451-1.186 1.104-2.685 1.622-4.237 1.622-3.487 0-6.294-2.659-6.294-6.002 0-3.345 2.807-6.037 6.294-6.037zm8.597 11.437l5.457-11.253a.355.355 0 0 1 .297-.184h.174c.122 0 .244.084.297.184l5.457 11.253c.104.218-.036.435-.297.435h-1.935c-.314 0-.454-.1-.61-.418l-.628-1.321h-4.742l-.628 1.338a.648.648 0 0 1-.628.401h-1.918c-.261 0-.4-.217-.296-.435zm7.166-3.578l-1.325-2.759h-.018l-1.307 2.759h2.65zm9.782-7.374c0-.167.14-.317.332-.317h2.074c.175 0 .332.15.332.317v8.93h4.15c.191 0 .33.15.33.317v1.822c0 .168-.139.318-.33.318h-6.556a.324.324 0 0 1-.332-.318V5.646zm12.746 0c0-.167.157-.317.332-.317h2.092c.174 0 .331.15.331.317v11.07c0 .167-.157.317-.331.317h-2.092c-.175 0-.332-.15-.332-.318V5.646zm9.573-.184c0-.166.157-.3.331-.3h.436l6.957 6.42h.017V5.646c0-.167.14-.317.331-.317h2.093c.174 0 .33.15.33.317V16.9c0 .167-.156.301-.33.301h-.28a.527.527 0 0 1-.226-.083l-6.887-6.639h-.017v6.237c0 .168-.14.318-.331.318h-2.075c-.175 0-.331-.15-.331-.318l-.018-11.253zm22.72-.284c1.464 0 3.068.585 4.254 1.572.157.117.174.318.035.451l-1.378 1.405a.381.381 0 0 1-.47.016c-.663-.584-1.43-.802-2.284-.802-1.901 0-3.435 1.538-3.435 3.377 0 1.823 1.552 3.328 3.452 3.328.505 0 1.029-.067 1.552-.268v-.97h-1.099c-.191 0-.331-.133-.331-.3V11.33c0-.183.14-.318.331-.318h3.505a.32.32 0 0 1 .314.318l.017 4.498c0 .083-.07.217-.14.267 0 0-1.795 1.087-4.323 1.087-3.47 0-6.26-2.641-6.26-5.986 0-3.343 2.79-6.019 6.26-6.019zM62.551 32.67l4.335-9.111a.332.332 0 0 1 .24-.149h.14c.07 0 .198.068.24.149l4.307 9.112c.084.176-.029.352-.24.352h-.89a.33.33 0 0 1-.325-.203l-.875-1.855h-4.616c-.283.623-.58 1.232-.862 1.855a.355.355 0 0 1-.325.203h-.889c-.212 0-.324-.176-.24-.352zm6.396-2.87l-1.737-3.71h-.07l-1.723 3.71h3.53zm11.405-6.39c1.426 0 2.457.46 3.417 1.259.127.109.127.271.014.38l-.62.609c-.1.122-.227.122-.354 0-.663-.555-1.567-.907-2.443-.907a3.523 3.523 0 0 0-3.543 3.52c0 1.895 1.539 3.506 3.557 3.506 1.03 0 1.752-.392 2.429-.893.127-.095.254-.082.339-.014l.649.61c.113.094.085.27-.014.365-.96.893-2.174 1.313-3.43 1.313-2.824 0-5.097-2.153-5.097-4.86 0-2.708 2.273-4.888 5.096-4.888zm6.93 9.26l4.335-9.111a.333.333 0 0 1 .24-.149H92c.07 0 .197.068.24.149l4.305 9.112c.085.176-.028.352-.24.352h-.889a.33.33 0 0 1-.325-.203l-.875-1.855h-4.617c-.282.623-.579 1.232-.861 1.855a.354.354 0 0 1-.324.203h-.89c-.211 0-.325-.176-.24-.352zm6.396-2.87l-1.736-3.71h-.07l-1.723 3.71h3.53zm7.086-5.998a.26.26 0 0 1 .254-.256h3.248c2.724 0 4.955 2.125 4.955 4.724 0 2.627-2.231 4.753-4.955 4.753h-3.248a.26.26 0 0 1-.254-.257v-8.964zm3.304 7.934c2.075 0 3.586-1.462 3.586-3.466 0-1.99-1.51-3.438-3.586-3.438h-1.864v6.904h1.864zm9.994-7.933c0-.135.114-.257.269-.257h5.647c.154 0 .268.122.268.257v.758a.263.263 0 0 1-.268.257h-4.462v2.762h3.77c.141 0 .268.122.268.257v.759a.263.263 0 0 1-.268.257h-3.77v2.91h4.462c.154 0 .268.123.268.258v.745a.263.263 0 0 1-.268.257h-5.647a.263.263 0 0 1-.269-.257v-8.963zm12.197-.19a.283.283 0 0 1 .254-.203h.226c.084 0 .212.068.24.15l2.95 6.918h.057l2.936-6.919c.028-.081.141-.149.24-.149h.226c.113 0 .226.095.255.203l1.736 9.099c.042.189-.057.31-.254.31h-.918a.29.29 0 0 1-.268-.189l-1.045-6.052h-.042l-2.541 6.228c-.028.081-.114.15-.24.15h-.254c-.114 0-.212-.069-.241-.15l-2.555-6.228h-.056l-1.017 6.052c-.014.095-.141.19-.254.19h-.918c-.197 0-.296-.122-.268-.311l1.75-9.099zm15.697 4.847l-3.303-4.522c-.113-.176 0-.392.226-.392h1.045c.112 0 .183.067.225.121l2.556 3.453 2.555-3.453c.042-.054.127-.121.225-.121h1.06c.225 0 .338.216.225.392l-3.346 4.509v4.319c0 .135-.126.257-.268.257h-.931a.263.263 0 0 1-.269-.257V28.46z"/>
        <path fill="#328CC1" d="M7.497 35.897l16.6-27.692 8.731 14.564H21.67l-2.57 4.287h16.298l5.3 8.841H7.497zM36.147 20L24.096 0 12.05 20 0 40h48.195L36.146 20z"/>
    </g>
</svg>
