<svg xmlns="http://www.w3.org/2000/svg" width="195" height="31" viewBox="0 0 195 31">
    <g fill="none" fill-rule="nonzero">
        <g fill="#F2F4F8">
            <path d="M52.805 4.013c1.125 0 2.356.454 3.266 1.218.12.091.134.246.027.35L55.041 6.67a.29.29 0 0 1-.362.013c-.509-.453-1.097-.621-1.753-.621-1.46 0-2.637 1.192-2.637 2.617 0 1.413 1.191 2.579 2.65 2.579.388 0 .79-.052 1.191-.208v-.751h-.843c-.147 0-.254-.104-.254-.233V8.782c0-.143.107-.247.254-.247h2.69c.135 0 .242.117.242.247l.013 3.486a.317.317 0 0 1-.107.207s-1.379.842-3.32.842C50.142 13.317 48 11.27 48 8.678c0-2.591 2.142-4.665 4.805-4.665zm8.207.363a.25.25 0 0 1 .254-.246h1.593c.134 0 .254.116.254.246v6.92h3.186a.25.25 0 0 1 .254.246v1.412a.25.25 0 0 1-.254.247h-5.033a.25.25 0 0 1-.254-.247V4.376zM74.866 4c2.677 0 4.819 2.086 4.819 4.678s-2.142 4.652-4.819 4.652-4.805-2.06-4.805-4.652S72.19 4 74.866 4zm0 7.257c1.472 0 2.677-1.167 2.677-2.579 0-1.425-1.205-2.604-2.677-2.604-1.459 0-2.664 1.179-2.664 2.604 0 1.412 1.205 2.579 2.664 2.579zm9.385-6.881a.25.25 0 0 1 .254-.246h3.119c1.58 0 2.877 1.05 2.877 2.41 0 .998-.923 1.724-1.552 2.047.709.285 1.793.92 1.793 2.113 0 1.45-1.325 2.5-2.918 2.5h-3.32a.25.25 0 0 1-.253-.246V4.376zm3.306 6.971a.955.955 0 0 0 .963-.945c0-.519-.575-.908-1.097-.908h-1.084v1.853h1.218zm-.174-3.537a.939.939 0 0 0 .937-.933c0-.518-.429-.881-.937-.881h-1.044V7.81h1.044zm6.8 5.054l4.19-8.721A.273.273 0 0 1 98.6 4h.134c.094 0 .188.065.228.143l4.19 8.72c.08.17-.027.338-.228.338h-1.486c-.241 0-.348-.078-.468-.324l-.482-1.024h-3.64l-.483 1.037a.497.497 0 0 1-.482.31h-1.472c-.2 0-.308-.168-.227-.336zm5.502-2.774l-1.018-2.138h-.013L97.65 10.09h2.035zm7.51-5.714a.25.25 0 0 1 .254-.246h1.593c.134 0 .254.116.254.246v6.92h3.186a.25.25 0 0 1 .254.246v1.412a.25.25 0 0 1-.254.247h-5.033a.25.25 0 0 1-.254-.247V4.376zm15.153 7.594l.63-1.076c.106-.169.361-.142.454-.078.054.026 1.018.713 1.901.713.536 0 .924-.324.924-.777 0-.545-.469-.96-1.379-1.31-1.151-.44-2.597-1.308-2.597-2.863 0-1.283 1.031-2.579 3.093-2.579 1.391 0 2.462.687 2.863.972.161.09.135.324.081.415l-.683.997c-.093.143-.334.26-.455.17-.12-.066-1.097-.778-1.914-.778-.481 0-.843.31-.843.66 0 .48.402.843 1.459 1.257 1.044.402 2.704 1.193 2.704 2.955 0 1.335-1.191 2.682-3.16 2.682-1.74 0-2.703-.7-3.01-.998-.135-.13-.175-.181-.068-.362zM137.314 4c1.339 0 2.33.402 3.24 1.205.12.104.12.26.013.363l-1.045 1.05a.24.24 0 0 1-.334 0 2.787 2.787 0 0 0-1.807-.661c-1.513 0-2.624 1.218-2.624 2.67a2.607 2.607 0 0 0 2.637 2.63c.63 0 1.312-.22 1.794-.622.093-.078.267-.078.348.013l1.044 1.075c.094.091.08.26-.013.35-.91.855-2.062 1.257-3.253 1.257-2.677 0-4.832-2.06-4.832-4.652S134.637 4 137.314 4zm6.6 8.864l4.19-8.721A.272.272 0 0 1 148.33 4h.134c.093 0 .187.065.227.143l4.19 8.72c.08.17-.027.338-.228.338h-1.485c-.241 0-.349-.078-.469-.324l-.482-1.024h-3.64l-.483 1.037a.498.498 0 0 1-.481.31h-1.473c-.2 0-.308-.168-.227-.336zm5.501-2.774l-1.017-2.138h-.013l-1.004 2.138h2.034zm7.51-5.714a.25.25 0 0 1 .255-.246h1.592c.134 0 .255.116.255.246v6.92h3.186a.25.25 0 0 1 .254.246v1.412a.25.25 0 0 1-.254.247h-5.033a.25.25 0 0 1-.255-.247V4.376zm9.786 0c0-.13.12-.246.254-.246h1.606c.134 0 .255.116.255.246v8.578c0 .13-.12.247-.255.247h-1.606c-.134 0-.254-.117-.254-.247V4.376zm7.349-.143c0-.129.12-.233.254-.233h.335l5.34 4.976h.014v-4.6a.25.25 0 0 1 .254-.246h1.606c.134 0 .254.116.254.246v8.72c0 .13-.12.234-.254.234h-.214a.402.402 0 0 1-.174-.065l-5.287-5.144h-.013v4.833a.25.25 0 0 1-.255.247h-1.592c-.134 0-.255-.117-.255-.247l-.013-8.72zm17.442-.22c1.124 0 2.356.454 3.266 1.218.12.091.134.246.027.35l-1.058 1.088a.29.29 0 0 1-.361.013c-.509-.453-1.098-.621-1.753-.621-1.46 0-2.637 1.192-2.637 2.617 0 1.413 1.191 2.579 2.65 2.579.388 0 .79-.052 1.191-.208v-.751h-.843c-.147 0-.255-.104-.255-.233V8.782c0-.143.108-.247.255-.247h2.69c.134 0 .241.117.241.247l.014 3.486a.317.317 0 0 1-.107.207s-1.38.842-3.32.842c-2.664 0-4.805-2.047-4.805-4.639 0-2.591 2.141-4.665 4.805-4.665zM48.022 25.32l3.327-7.062a.254.254 0 0 1 .184-.115h.108c.055 0 .152.052.185.115l3.306 7.062c.064.136-.022.273-.184.273h-.684a.253.253 0 0 1-.25-.158l-.67-1.437h-3.545c-.217.483-.444.955-.661 1.437a.273.273 0 0 1-.25.158h-.682c-.163 0-.25-.137-.184-.273zm4.91-2.225l-1.334-2.875h-.054l-1.323 2.875h2.71zm8.756-4.952c1.095 0 1.886.357 2.623.975.097.085.097.21.01.294l-.476.473c-.076.094-.174.094-.271 0a2.992 2.992 0 0 0-1.875-.703c-1.55 0-2.72 1.259-2.72 2.728a2.718 2.718 0 0 0 2.73 2.717c.792 0 1.345-.304 1.865-.692.097-.074.195-.063.26-.01l.498.471c.087.074.066.21-.01.284-.737.692-1.67 1.018-2.634 1.018-2.168 0-3.913-1.669-3.913-3.767 0-2.099 1.745-3.788 3.913-3.788zm5.32 7.177l3.328-7.062a.255.255 0 0 1 .184-.115h.109c.054 0 .151.052.184.115l3.306 7.062c.065.136-.022.273-.185.273h-.682a.253.253 0 0 1-.25-.158l-.672-1.437h-3.544c-.217.483-.444.955-.661 1.437a.272.272 0 0 1-.25.158h-.682c-.162 0-.25-.137-.184-.273zm4.91-2.225l-1.333-2.875h-.054l-1.322 2.875h2.71zm5.44-4.648a.2.2 0 0 1 .195-.2h2.493c2.092 0 3.805 1.648 3.805 3.663 0 2.035-1.713 3.683-3.805 3.683h-2.493a.2.2 0 0 1-.195-.2v-6.946zm2.537 6.149c1.593 0 2.752-1.133 2.752-2.686 0-1.543-1.16-2.665-2.752-2.665h-1.431v5.35h1.43zm7.673-6.149c0-.105.087-.2.205-.2h4.336c.119 0 .206.095.206.2v.588c0 .104-.087.199-.206.199h-3.425v2.14h2.894c.108 0 .206.095.206.2v.588c0 .115-.098.2-.206.2h-2.894v2.255h3.425c.119 0 .206.094.206.2v.576c0 .105-.087.2-.206.2h-4.336a.203.203 0 0 1-.205-.2v-6.946zm9.363-.147c.021-.084.108-.157.195-.157h.173c.065 0 .163.052.184.115l2.266 5.362h.043l2.254-5.362c.022-.063.109-.115.185-.115h.173c.087 0 .174.073.196.157l1.332 7.051c.033.147-.043.242-.195.242h-.704a.223.223 0 0 1-.206-.147l-.802-4.69h-.033l-1.95 4.826c-.022.063-.087.116-.185.116h-.195c-.087 0-.162-.053-.184-.116l-1.962-4.827h-.043l-.78 4.69c-.011.074-.109.148-.196.148h-.704c-.152 0-.228-.095-.206-.242l1.344-7.05zm12.051 3.757l-2.536-3.505c-.087-.136 0-.304.174-.304h.802c.086 0 .14.052.173.094l1.962 2.676 1.961-2.676c.033-.042.098-.094.174-.094h.812c.174 0 .26.168.174.304l-2.569 3.494v3.347c0 .105-.097.2-.206.2h-.715a.203.203 0 0 1-.206-.2v-3.336z"/>
        </g>
        <path fill="#F3F5F6" d="M5.756 27.82L18.5 6.36l6.703 11.287h-8.567l-1.972 3.322h12.511l4.07 6.853H5.754zM27.75 15.5L18.5 0 9.25 15.5 0 31h37l-9.25-15.5z"/>
    </g>
</svg>
