<svg xmlns="http://www.w3.org/2000/svg" width="32" height="32" viewBox="0 0 32 32">
    <g fill="#2B76A2" fill-rule="evenodd">
        <path d="M0 16.168C0 7.238 7.239 0 16.168 0c8.93 0 16.169 7.239 16.169 16.168 0 8.93-7.239 16.169-16.169 16.169S0 25.098 0 16.168zm16.17-8.623c-2.343 0-2.637.01-3.556.052-.918.042-1.545.188-2.093.401a4.223 4.223 0 0 0-1.528.994c-.48.48-.774.96-.995 1.528-.214.548-.36 1.175-.4 2.093-.042.92-.053 1.214-.053 3.556 0 2.341.01 2.634.052 3.554.043.918.188 1.545.401 2.093.22.567.515 1.048.995 1.528.479.48.96.775 1.527.995.548.213 1.175.359 2.093.4.92.043 1.213.053 3.555.053s2.635-.01 3.555-.052c.918-.042 1.545-.188 2.094-.401a4.219 4.219 0 0 0 1.527-.995c.48-.48.774-.96.995-1.528.212-.548.357-1.175.4-2.093.042-.92.053-1.213.053-3.554 0-2.342-.011-2.636-.053-3.556-.043-.918-.188-1.545-.4-2.093a4.232 4.232 0 0 0-.995-1.528c-.48-.48-.96-.774-1.527-.994-.55-.213-1.177-.359-2.095-.4-.92-.042-1.213-.053-3.555-.053h.002z"/>
        <path d="M15.396 9.1h.773c2.303 0 2.576.008 3.485.049.84.038 1.297.179 1.6.297.403.156.69.343.992.645.302.302.488.589.645.991.118.304.259.76.297 1.601.041.91.05 1.182.05 3.484 0 2.3-.009 2.574-.05 3.483-.038.84-.179 1.297-.297 1.6a2.666 2.666 0 0 1-.645.991 2.667 2.667 0 0 1-.991.645c-.304.119-.76.259-1.601.297-.91.042-1.182.05-3.485.05-2.302 0-2.575-.008-3.484-.05-.841-.038-1.297-.179-1.602-.297a2.67 2.67 0 0 1-.991-.645 2.673 2.673 0 0 1-.645-.991c-.119-.304-.26-.76-.297-1.6-.042-.91-.05-1.183-.05-3.486 0-2.302.008-2.574.05-3.483.038-.84.178-1.297.297-1.601.156-.403.343-.69.645-.992.302-.302.59-.488.991-.645.304-.119.761-.259 1.602-.297.795-.036 1.103-.047 2.71-.049V9.1zm5.376 1.431a1.035 1.035 0 1 0 0 2.07 1.035 1.035 0 0 0 0-2.07zm-4.603 1.21a4.429 4.429 0 1 0 .001 8.856 4.429 4.429 0 0 0-.001-8.857z"/>
        <path d="M16.17 13.294a2.874 2.874 0 1 1 0 5.749 2.874 2.874 0 0 1 0-5.749z"/>
    </g>
</svg>
