<svg xmlns="http://www.w3.org/2000/svg" width="32" height="32" viewBox="0 0 32 32">
    <path fill="#2B76A2" fill-rule="evenodd" d="M0 16.168C0 7.238 7.239 0 16.168 0c8.93 0 16.169 7.239 16.169 16.168 0 8.93-7.239 16.169-16.169 16.169S0 25.098 0 16.168zm11.426-2.777H7.762v11.01h3.664V13.39zm.241-3.405c-.023-1.08-.795-1.902-2.049-1.902-1.253 0-2.073.822-2.073 1.902 0 1.057.796 1.903 2.026 1.903h.023c1.278 0 2.073-.846 2.073-1.903zm12.973 8.102c0-3.381-1.807-4.955-4.219-4.955-1.945 0-2.816 1.068-3.302 1.818v-1.56h-3.665c.049 1.034 0 11.01 0 11.01h3.665v-6.149c0-.329.024-.657.12-.892.265-.658.868-1.338 1.88-1.338 1.327 0 1.857 1.01 1.857 2.489v5.89h3.664v-6.313z"/>
</svg>
