<svg xmlns="http://www.w3.org/2000/svg" width="32" height="32" viewBox="0 0 32 32">
    <path fill="#2B76A2" fill-rule="evenodd" d="M0 16.168C0 7.238 7.239 0 16.168 0c8.93 0 16.169 7.239 16.169 16.168 0 8.93-7.239 16.169-16.169 16.169S0 25.098 0 16.168zm15.684-3.026l.034.56-.565-.07c-2.059-.262-3.857-1.152-5.384-2.648l-.746-.742-.192.548c-.408 1.222-.147 2.512.7 3.38.453.479.351.548-.429.262-.271-.091-.509-.16-.531-.126-.08.08.192 1.12.407 1.53.294.571.893 1.13 1.55 1.462l.553.263-.656.01c-.633 0-.656.012-.588.252.226.742 1.12 1.53 2.115 1.873l.701.24-.61.365a6.367 6.367 0 0 1-3.031.845c-.51.011-.928.057-.928.091 0 .114 1.38.754 2.183 1.005 2.409.742 5.27.422 7.419-.845 1.527-.902 3.054-2.695 3.766-4.43.385-.925.77-2.615.77-3.425 0-.526.033-.594.666-1.222.374-.366.724-.765.792-.88.113-.216.102-.216-.475-.022-.961.342-1.097.297-.622-.217.35-.365.769-1.028.769-1.222 0-.034-.17.023-.362.126-.203.114-.656.285-.995.388l-.61.194-.555-.377c-.305-.205-.735-.434-.961-.502-.577-.16-1.46-.137-1.98.046-1.413.513-2.307 1.838-2.205 3.288z"/>
</svg>
