<svg xmlns="http://www.w3.org/2000/svg" width="32" height="32" viewBox="0 0 32 32">
    <g fill="none" fill-rule="evenodd">
        <path fill="#2B76A2" d="M0 16.168C0 7.238 7.239 0 16.168 0c8.93 0 16.169 7.239 16.169 16.168 0 8.93-7.239 16.169-16.169 16.169S0 25.098 0 16.168zm24.62-3.254s-.17-1.215-.686-1.75c-.656-.701-1.391-.705-1.728-.746-2.414-.178-6.034-.178-6.034-.178h-.007s-3.62 0-6.034.178c-.337.041-1.072.045-1.728.747-.517.534-.685 1.749-.685 1.749s-.173 1.426-.173 2.852v1.337c0 1.427.173 2.853.173 2.853s.168 1.214.685 1.749c.656.702 1.518.68 1.902.753 1.38.136 5.863.178 5.863.178s3.624-.006 6.038-.184c.337-.041 1.072-.045 1.728-.747.516-.535.685-1.75.685-1.75s.173-1.425.173-2.852v-1.337c0-1.426-.173-2.852-.173-2.852z"/>
        <path fill="#328CC1" d="M14.388 18.724v-4.952l4.659 2.484z"/>
    </g>
</svg>
